PathFileType	4	(X/Y/Z)	C:/Users/beibeiliu/ov580/test_trc/User2\sequence.7_training_dense_left.trc
DataRate	CameraRate	NumFrames	NumMarkers	Units	OrigDataRate	OrigDataStartFrame	OrigNumFrames
120	120	21	19	mm	120	57	113
Frame#	Time	ThumbCMC			ThumbMCP			ThumbIP			ThumbTip			IndexMCP			IndexPIP			IndexTip			MiddleMCP			MiddlePIP			MiddleTip			RingMCP			RingPIP			RingTip			PinkyMCP			PinkyPIP			PinkyTip			BackHand1			BackHand2			BackHand3	
		X0	Y0	Z0	X1	Y1	Z1	X2	Y2	Z2	X3	Y3	Z3	X4	Y4	Z4	X5	Y5	Z5	X6	Y6	Z6	X7	Y7	Z7	X8	Y8	Z8	X9	Y9	Z9	X10	Y10	Z10	X11	Y11	Z11	X12	Y12	Z12	X13	Y13	Z13	X14	Y14	Z14	X15	Y15	Z15	X16	Y16	Z16	X17	Y17	Z17	X18	Y18	Z18	
56	0.466667	-330.476	29.0301	15.1388	-331.065	56.6271	-4.34144	-317.626	78.7082	-28.6217	-295.544	88.2115	-42.6527	-291.885	6.2352	-54.2116	-277.06	14.9966	-80.8832	-257.732	33.7105	-94.3822	-264.055	-6.34463	-53.0004	-238.569	8.94458	-75.6243	-215.514	37.1837	-78.9653	-247.165	-11.4779	-32.7912	-220.233	2.93214	-53.5917	-209.044	33.9764	-59.1372	-233.257	-10.0307	-8.48825	-210.423	4.94943	-25.2014	-198.019	36.0072	-28.6855	-275.844	-24.3717	10.0146	-295.117	-30.7013	41.5353	-315.329	-8.31922	8.28774	
57	0.475	-338.74	23.2043	20.628	-343.509	47.4107	-1.89062	-332.678	67.7374	-31.5913	-314.658	75.8874	-47.4467	-310.046	-2.4114	-57.5083	-297.982	2.41194	-85.1576	-282.978	24.5804	-102.981	-281.162	-15.2272	-56.3837	-263.686	-4.42901	-83.1834	-242.705	29.6141	-95.6586	-260.368	-14.9628	-45.0288	-243.253	-1.92015	-67.8774	-233.315	26.7762	-75.2724	-242.432	-10.2797	-19.18	-221.892	7.25164	-41.3615	-215.892	34.2728	-49.3224	-282.407	-23.2688	10.5797	-299.212	-28.4213	38.6616	-321.916	-14.6239	12.9587	
58	0.483333	-350.244	17.6168	22.4881	-354.649	38.84	-2.02185	-352.208	56.596	-30.919	-333.144	61.9229	-54.6752	-329.441	-17.5842	-52.2838	-324.306	-16.1922	-83.9352	-309.681	7.15843	-108.405	-301.1	-30.0821	-54.5106	-287.546	-20.9776	-91.6342	-272.552	7.60897	-109.29	-277.979	-28.5131	-45.6578	-263.485	-17.5772	-75.3152	-257.112	9.26247	-88.4731	-255.453	-20.4747	-28.11	-243.335	-6.75588	-53.8153	-237.444	22.007	-67.6026	-294.784	-29.9692	5.73103	-300.581	-32.1927	41.477	-328.925	-22.749	14.9971	
59	0.491667	-355.503	12.9871	25.4728	-361.986	32.4011	-1.28745	-361.411	47.0704	-32.3113	-343.888	48.8815	-56.4131	-347.695	-30.5505	-52.1679	-347.631	-27.155	-84.4529	-333.877	-11.0685	-104.181	-316.718	-45.9532	-54.8008	-310.925	-41.9379	-88.2871	-293.585	-16.0041	-111.049	-292.011	-43.3255	-48.9534	-284.046	-34.4869	-79.4195	-274.353	-6.2893	-97.4092	-268.799	-31.8214	-30.2035	-255.977	-20.8943	-62.8776	-254.596	0.660067	-76.4837	-298.325	-39.1139	12.0004	-303.122	-38.4537	42.5634	-339.224	-28.1233	19.144	
60	0.5	-358.435	11.9658	27.1304	-365.165	29.3352	-0.15481	-367.842	42.818	-36.8799	-352.648	41.071	-57.7116	-356.614	-35.9751	-41.4251	-360.125	-38.918	-75.1925	-347.693	-18.3508	-103.269	-334.231	-52.7302	-49.2815	-327.13	-53.0746	-83.2951	-316.58	-26.2372	-113.051	-305.179	-53.2397	-44.8326	-297.104	-49.6504	-76.9576	-293.905	-24.9131	-97.3643	-281.037	-41.5266	-32.4771	-269.324	-37.0346	-62.8	-265.991	-18.2073	-84.1815	-307.93	-42.8587	9.22617	-308.493	-37.4073	45.7193	-338.544	-30.3061	23.7271	
61	0.508333	-360.006	15.2603	27.6336	-366.754	32.9498	-0.14517	-370.867	44.3224	-33.173	-359.058	39.5291	-62.5129	-366.625	-39.8879	-34.578	-373.912	-43.3282	-68.528	-367.091	-23.7804	-95.452	-347.388	-57.3162	-44.3442	-343.38	-57.6208	-80.8897	-333.497	-33.3739	-107.367	-316.534	-59.3323	-39.2106	-316.564	-58.8168	-72.87	-307.922	-34.1218	-96.4259	-290.146	-51.7162	-31.9682	-286.258	-48.714	-64.2357	-285.937	-29.8011	-85.0213	-313.655	-45.2849	12.1377	-311.997	-37.612	44.9416	-349.413	-28.3391	31.288	
62	0.516667	-358.591	19.8209	31.0475	-365.244	35.3091	-1.4722	-368.417	45.4758	-30.3314	-360.308	37.2487	-60.5657	-381.707	-38.8034	-28.9337	-390.319	-42.096	-58.6159	-377.485	-25.5134	-89.0339	-362.592	-57.5506	-34.5185	-365.452	-59.254	-73.6661	-349.744	-40.0677	-100.428	-334.733	-64.1151	-35.5435	-338.298	-64.7672	-66.1717	-328.275	-39.7828	-92.4361	-306.656	-58.0108	-27.8343	-304.18	-59.3168	-60.9679	-302.308	-41.6888	-86.2801	-324.74	-45.4191	21.7	-319.209	-36.2297	49.2554	-352.739	-25.2351	35.2395	
63	0.525	-353.533	25.302	30.8816	-358.079	42.5501	0.905215	-362.04	52.1238	-30.6174	-356.206	43.1287	-59.2473	-391.542	-28.1478	-22.7902	-401.57	-31.0955	-55.3609	-390.049	-17.602	-84.1815	-377.882	-53.2486	-29.2778	-384.019	-55.446	-63.7384	-369.317	-35.2367	-93.7843	-352.405	-60.8314	-27.5368	-358.168	-62.886	-61.9345	-345.895	-43.4969	-86.8533	-324.533	-59.9264	-23.0123	-323.016	-65.5213	-57.223	-323.182	-45.9029	-82.3152	-335.231	-43.5593	22.7618	-321.486	-39.666	53.1961	-359.264	-19.9635	37.8197	
64	0.533333	-349.335	28.4775	30.1455	-349.189	50.8588	3.63182	-355.52	62.5021	-33.7284	-349.524	51.4672	-57.9408	-399.564	-16.8987	-21.4923	-409.984	-16.2715	-53.5543	-399.048	-5.13926	-78.7736	-392.409	-40.9367	-23.3837	-398.598	-44.564	-61.7071	-380.564	-28.8646	-91.0108	-367.659	-58.5984	-26.1955	-374.26	-58.9376	-57.6103	-360.922	-37.7581	-83.6907	-340.149	-59.0833	-23.7877	-342.338	-64.2969	-56.8794	-334.309	-49.773	-81.2283	-342.731	-42.6341	23.3988	-328.669	-36.1452	51.5184	-359.904	-11.2165	38.7303	
65	0.541667	-344.128	34.1112	29.2941	-343.059	54.1724	-1.76317	-340.892	67.2465	-29.342	-341.953	59.1321	-59.0751	-401.494	0.085963	-16.6544	-413.616	0.760044	-51.207	-399.3	9.11584	-81.216	-401.919	-27.0397	-21.6286	-409.37	-31.7184	-58.8254	-391.211	-22.4279	-87.7692	-382.867	-45.0988	-25.3402	-388.276	-46.9068	-57.5395	-370.773	-32.6462	-82.657	-355.706	-56.1289	-25.4897	-356.733	-60.8812	-56.5357	-352.218	-41.7419	-80.3005	-349.828	-37.4576	24.3986	-337.972	-37.9508	50.1434	-361.785	-7.39391	40.3409	
66	0.55	-336.036	39.945	28.1103	-328.522	58.6902	0.52135	-326.486	70.7907	-32.2444	-327.966	65.0978	-62.2765	-400.176	20.4846	-16.7416	-412.908	25.7807	-49.4964	-396.626	29.9061	-79.6931	-407.559	-9.64731	-22.2515	-418.736	-5.94878	-54.5747	-394.232	-1.8301	-88.7608	-393.011	-31.428	-25.1138	-400.063	-33.3443	-56.7694	-381.894	-19.7031	-80.592	-366.863	-47.9802	-21.4741	-374.272	-47.021	-54.2324	-360.995	-37.4035	-79.8857	-360.324	-29.6444	25.2468	-345.617	-31.7402	49.1657	-363.688	3.29596	40.8193	
67	0.558333	-325.498	43.6255	28.448	-311.995	56.3931	0.661582	-305.82	71.6581	-31.853	-311.056	61.076	-61.0193	-392.32	40.9653	-18.8894	-400.378	52.8807	-48.7951	-385.498	53.2101	-78.8631	-405.238	15.9495	-22.576	-414.641	22.1953	-58.507	-392.468	19.9403	-88.0504	-399.57	-8.51105	-24.6142	-405.035	-4.9527	-58.5081	-381.975	1.31686	-81.4343	-382.969	-31.5042	-25.1319	-386.732	-27.9455	-57.4391	-367.996	-17.0835	-79.9494	-369.892	-18.347	25.0377	-355.048	-21.5999	48.6134	-361.935	15.5667	39.6538	
68	0.566667	-310.885	39.8983	30.3351	-294.136	49.5092	1.83868	-286.122	58.7715	-27.3691	-290.48	55.7915	-59.5351	-374.605	64.9691	-19.7985	-377.508	76.9869	-52.3878	-365.151	68.6104	-78.9843	-396.437	43.5497	-21.4267	-402.426	51.6757	-55.7558	-380.309	46.0101	-86.1394	-396.934	18.8056	-22.8184	-402.374	23.9143	-56.3111	-381.179	19.129	-81.0476	-391.289	-11.1896	-22.8732	-393.246	-1.13704	-55.0758	-373.673	3.30438	-76.5063	-375.099	-0.817298	22.4024	-364.041	-12.6438	51.2173	-355.918	25.4087	38.6386	
69	0.575	-300.208	28.3251	31.0033	-281.394	36.0431	0.336598	-268.493	43.9509	-29.6334	-274.234	40.9193	-58.8591	-346.568	77.2085	-18.537	-347.85	87.8232	-51.1781	-339.259	76.7809	-78.7597	-377.857	63.9142	-23.2636	-381.037	72.89	-55.5205	-360.93	57.7816	-87.6917	-388.763	37.2345	-24.2127	-392.463	44.7767	-54.6334	-369.418	35.7537	-80.0464	-390.874	11.174	-21.502	-389.451	21.1169	-52.5109	-373.802	16.5693	-75.521	-372.04	10.9657	26.5593	-362.642	-3.59576	54.2067	-343.722	31.7523	39.7464	
70	0.583333	-286.59	18.1127	30.5094	-271.594	18.125	2.158	-255.878	22.4373	-30.5251	-264.627	22.1199	-59.4192	-322.74	74.5152	-19.6801	-319.364	87.5256	-47.0429	-316.136	71.4364	-82.224	-352.073	68.9851	-21.6064	-357.009	79.5144	-56.1029	-341.491	61.8767	-86.3847	-373.024	47.5599	-23.0574	-370.633	56.5161	-57.7735	-353.815	36.5628	-82.8133	-382.539	23.4184	-21.6213	-382.903	29.9268	-51.7114	-360.402	21.4831	-75.9359	-364.648	19.4216	23.191	-353.709	6.04855	52.8023	-329.638	31.4323	38.7785	
71	0.591667	-277.178	7.61823	27.9347	-256.993	1.4288	5.27955	-247.526	2.7845	-29.1549	-254.29	1.41493	-59.2374	-308.372	62.134	-25.2578	-301.16	73.4091	-55.498	-297.706	56.768	-85.6116	-335.034	62.9076	-24.0587	-334.331	73.6515	-59.9303	-325.294	48.3338	-91.5133	-354.602	47.859	-26.9549	-356.235	54.6993	-55.0413	-341.714	30.4253	-84.0021	-369.604	19.1929	-18.8109	-368.752	29.5528	-52.5237	-351.924	16.4608	-77.5953	-352.29	19.3781	19.7594	-347.568	7.27004	51.037	-314.245	28.4429	35.1359	
72	0.6	-268.883	-7.65698	31.8915	-250.462	-14.0798	5.02138	-237.099	-16.7259	-28.6756	-250.607	-19.2466	-56.4334	-294.948	46.7747	-30.0343	-289.998	56.3621	-59.8864	-284.897	40.0532	-88.2149	-324.677	51.0123	-32.1075	-325.359	56.1707	-69.1446	-318.811	30.8206	-95.0173	-344.955	36.2448	-29.8182	-343.565	42.3506	-62.2776	-331.318	17.3314	-86.7168	-357.495	11.8968	-20.2743	-362.075	19.3768	-53.2326	-350.671	1.71686	-78.9108	-344.337	11.9131	20.3657	-338.326	2.93933	52.6034	-307.186	17.489	33.6264	
73	0.608333	-268.324	-15.8777	32.0746	-251.728	-22.8746	2.98564	-238.599	-29.714	-31.2516	-245.352	-36.3991	-56.3459	-288.153	32.008	-32.4846	-280.85	41.1386	-65.0669	-282.838	21.8641	-94.7446	-316.192	37.7137	-35.1828	-319.73	43.9044	-70.3137	-315.623	13.6048	-100.052	-338.345	25.0453	-30.9042	-338.647	28.4947	-66.259	-331.395	1.76816	-89.0487	-356.008	5.68877	-23.9614	-361.053	6.84938	-56.3565	-344.614	-13.9043	-76.6319	-336.571	6.6244	15.7623	-339.192	-0.122887	46.7963	-303.537	11.273	29.0921	
74	0.616667	-270.475	-17.4825	31.6553	-248.224	-27.3557	5.4319	-239.212	-35.0744	-29.6887	-243.454	-42.1463	-54.6631	-288.345	26.7142	-34.7022	-283.351	33.9872	-66.1696	-279.17	16.6411	-94.8411	-315.633	34.8346	-37.9524	-318.3	36.9569	-72.9521	-313.273	11.6718	-100.256	-336.887	20.4178	-30.7059	-341.903	22.9742	-67.808	-334.401	-0.583129	-86.2659	-358.493	0.591512	-22.1346	-359.28	2.29294	-52.5528	-347.049	-19.3914	-73.972	-339.717	1.61111	19.4661	-333.691	1.30402	50.7192	-301.216	9.54196	30.5728	
75	0.625	-267.335	-18.0393	33.2512	-251.373	-30.1918	7.14682	-238.648	-38.5278	-23.3189	-244.27	-47.123	-50.6526	-291.056	24.3125	-34.001	-284.819	28.149	-67.9402	-279.228	11.8027	-93.9512	-315.489	30.6759	-36.0946	-319.122	32.7447	-72.8503	-315.891	2.9942	-100.788	-341.366	18.5643	-31.5308	-340.082	20.3881	-64.0737	-335.843	-10.4098	-86.8693	-356.565	-2.72571	-18.9373	-362.842	-1.4359	-51.5143	-348.221	-22.9963	-71.9972	-335.768	4.67985	17.253	-333.148	1.09554	54.5187	-303.228	9.4849	35.1351	
76	0.633333	-266.464	-20.9729	33.4312	-250.15	-35.6915	11.3292	-243.357	-46.3651	-20.9647	-244.396	-56.114	-47.4452	-285.548	16.0125	-31.6069	-280.284	19.4773	-66.1379	-283.238	1.79877	-92.3728	-315.602	24.8677	-37.9534	-320.006	23.4137	-73.7123	-316.706	-3.89521	-98.3913	-337.841	13.2758	-29.4611	-344.978	10.4678	-64.4618	-339.888	-16.9634	-81.6527	-359.48	-4.71131	-16.8921	-363.045	-6.92203	-48.2024	-351.09	-32.8439	-69.9138	-336.181	0.524838	24.1713	-337.014	2.02648	53.3556	-302.823	8.7805	32.2735	
